<?xml version="1.0" standalone="no"?>
<!DOCTYPE svg PUBLIC "-//W3C//DTD SVG 20010904//EN"
 "http://www.w3.org/TR/2001/REC-SVG-20010904/DTD/svg10.dtd">
<svg version="1.0" xmlns="http://www.w3.org/2000/svg"
 width="704.000000pt" height="704.000000pt" viewBox="0 0 704.000000 704.000000"
 preserveAspectRatio="xMidYMid meet">
<metadata>
Created by potrace 1.11, written by Peter Selinger 2001-2013
</metadata>
<g transform="translate(0.000000,704.000000) scale(0.100000,-0.100000)"
fill="#000000" stroke="none">
<path d="M0 3520 l0 -3260 3520 0 3520 0 0 3260 0 3260 -3520 0 -3520 0 0
-3260z m6832 3055 c12 -5 17 -79 6 -90 -3 -3 -2 -24 2 -48 3 -23 3 -56 0 -73
-4 -16 -4 -39 0 -50 4 -10 4 -29 -1 -41 -5 -12 -4 -25 0 -28 5 -3 6 -20 2 -38
-5 -18 -5 -41 -1 -52 4 -11 5 -24 3 -28 -7 -12 -5 -185 2 -197 3 -5 2 -10 -3
-10 -5 0 -6 -20 -2 -45 4 -24 4 -49 0 -54 -3 -6 -3 -38 0 -71 3 -34 4 -63 2
-65 -6 -5 -4 -224 2 -233 3 -5 1 -24 -3 -43 -4 -19 -5 -43 -1 -54 4 -11 4 -30
-1 -42 -5 -12 -4 -25 0 -28 5 -3 6 -20 2 -38 -5 -18 -5 -41 -1 -52 4 -11 4
-29 0 -40 -4 -11 -6 -29 -4 -40 4 -24 5 -69 4 -146 0 -31 0 -61 1 -65 1 -5 0
-13 -1 -19 -1 -5 -1 -44 0 -85 1 -41 1 -82 1 -90 -1 -47 -2 -119 0 -126 1 -5
0 -13 -1 -19 -1 -5 -1 -44 0 -85 1 -41 1 -82 1 -90 -1 -47 -2 -119 0 -126 1
-5 0 -13 -1 -19 -1 -5 -1 -44 0 -85 1 -41 1 -82 1 -90 -2 -73 -1 -122 4 -130
3 -5 1 -11 -3 -14 -5 -3 -6 -25 -2 -48 3 -24 3 -57 0 -74 -4 -16 -4 -39 0 -50
4 -10 4 -29 -1 -41 -5 -12 -4 -25 0 -28 5 -3 6 -20 2 -38 -5 -18 -5 -41 -1
-52 4 -11 5 -24 3 -28 -7 -12 -5 -185 2 -197 3 -5 2 -10 -3 -10 -5 0 -6 -20
-2 -45 4 -24 4 -49 0 -54 -3 -6 -3 -38 0 -71 3 -34 4 -63 2 -65 -6 -5 -4 -224
2 -233 3 -5 1 -24 -3 -43 -4 -19 -5 -43 -1 -54 4 -11 4 -30 -1 -42 -5 -12 -4
-25 0 -28 5 -3 6 -20 2 -38 -5 -18 -5 -41 -1 -52 4 -11 4 -29 0 -40 -4 -11 -6
-29 -4 -40 4 -24 5 -69 4 -146 0 -31 0 -61 1 -65 1 -5 0 -13 -1 -19 -1 -5 -1
-44 0 -85 1 -41 1 -82 1 -90 -2 -73 -1 -122 4 -130 3 -5 1 -11 -3 -14 -5 -3
-6 -25 -2 -48 3 -24 3 -57 0 -74 -4 -16 -4 -39 0 -50 4 -10 4 -29 -1 -41 -5
-12 -4 -25 0 -28 5 -3 6 -20 2 -38 -5 -18 -5 -41 -1 -52 4 -11 5 -24 3 -28 -7
-12 -5 -185 2 -197 3 -5 2 -10 -3 -10 -5 0 -6 -20 -2 -45 4 -24 4 -49 0 -54
-3 -6 -3 -38 0 -71 3 -34 4 -63 2 -65 -6 -5 -4 -224 2 -233 3 -5 1 -24 -3 -43
-4 -19 -5 -43 -1 -54 4 -11 4 -30 -1 -42 -5 -12 -4 -25 0 -28 5 -3 6 -20 2
-38 -5 -18 -5 -41 -1 -52 4 -11 4 -30 -1 -42 -5 -12 -4 -25 0 -27 5 -3 6 -20
2 -38 -4 -18 -4 -52 -1 -75 4 -23 3 -49 -2 -57 -8 -15 -319 -16 -3322 -16
l-3313 0 -2 47 c-2 27 -3 55 -2 63 1 40 2 119 0 126 -1 5 -1 14 0 19 4 24 1
226 -3 233 -3 5 -1 24 3 43 4 19 5 43 1 54 -4 11 -4 30 1 42 5 12 4 25 0 28
-5 3 -6 20 -2 38 5 18 5 41 1 52 -4 11 -5 24 -3 28 7 12 5 185 -2 197 -3 5 -2
10 3 10 5 0 6 20 2 45 -4 24 -4 49 0 54 3 6 3 38 0 71 -3 34 -4 63 -2 65 6 5
4 224 -2 233 -3 5 -1 24 3 43 4 19 5 43 1 54 -4 11 -4 30 1 42 5 12 4 25 0 28
-5 3 -6 20 -2 38 5 18 5 41 1 52 -4 11 -5 24 -3 28 7 12 5 185 -2 197 -3 5 -2
10 3 10 5 0 6 20 2 45 -4 24 -4 49 0 54 3 6 3 38 0 71 -3 34 -4 63 -2 65 6 5
4 224 -2 233 -3 5 -1 24 3 43 4 19 5 43 1 54 -4 11 -4 30 1 42 5 12 4 25 0 28
-5 3 -6 20 -2 38 5 18 5 41 1 52 -4 11 -5 24 -3 28 7 12 5 185 -2 197 -3 5 -2
10 3 10 5 0 6 20 2 45 -4 24 -4 49 0 54 3 6 3 38 0 71 -3 34 -4 63 -2 65 6 5
4 224 -2 233 -3 5 -1 24 3 43 4 19 5 43 1 54 -4 11 -4 30 1 42 5 12 4 25 0 28
-5 3 -6 20 -2 38 5 18 5 41 1 52 -4 11 -5 24 -3 28 7 12 5 185 -2 197 -3 5 -2
10 3 10 5 0 6 20 2 45 -4 24 -4 49 0 54 3 6 3 38 0 71 -3 34 -4 63 -2 65 6 5
4 224 -2 233 -3 5 -1 24 3 43 4 19 5 43 1 54 -4 11 -4 30 1 42 5 12 4 25 0 28
-5 3 -6 20 -2 38 5 18 5 41 1 52 -4 11 -5 24 -3 28 7 12 5 185 -2 197 -3 5 -2
10 3 10 5 0 6 20 2 45 -4 24 -4 49 0 54 3 6 3 38 0 71 -3 34 -4 63 -2 65 6 5
4 224 -2 233 -3 5 -1 24 3 43 4 19 5 43 1 54 -4 11 -4 30 1 42 5 12 4 25 0 28
-5 3 -6 20 -2 38 5 18 5 41 1 52 -4 11 -5 24 -3 28 7 12 5 185 -2 197 -3 5 -2
10 3 10 5 0 6 20 2 45 -4 24 -4 49 0 54 3 6 3 38 0 71 -3 34 -4 63 -1 66 3 2
4 27 2 54 l-2 50 3309 0 c1821 0 3316 -2 3324 -5z"/>
<path d="M3408 5535 c-2 -2 -48 -6 -103 -9 -121 -8 -137 -10 -250 -32 -77 -15
-164 -40 -241 -69 -38 -15 -73 -28 -79 -29 -49 -10 -336 -184 -425 -258 -171
-142 -201 -170 -348 -325 -12 -13 -22 -28 -22 -32 0 -5 -7 -15 -16 -22 -23
-19 -123 -171 -168 -254 -45 -84 -96 -205 -125 -300 -12 -38 -26 -83 -31 -100
-15 -48 -50 -261 -57 -349 -12 -149 -5 -432 12 -539 2 -12 6 -40 9 -62 16
-111 80 -360 97 -379 5 -6 9 -16 9 -23 0 -20 98 -233 112 -243 4 -3 14 -21 23
-40 26 -59 134 -206 215 -294 256 -277 553 -481 840 -577 52 -17 104 -33 115
-35 11 -2 40 -8 65 -14 41 -9 72 -15 140 -25 117 -18 383 -24 555 -12 114 8
142 12 242 33 40 8 84 17 99 20 15 3 31 7 36 10 4 3 16 7 25 9 94 18 318 121
442 202 47 31 88 59 91 62 3 3 21 18 42 33 20 15 43 35 52 44 9 8 16 13 16 10
0 -2 17 12 39 32 21 20 65 62 98 93 215 198 388 471 482 759 44 137 66 233 86
385 19 144 24 381 12 534 -7 85 -45 330 -54 344 -2 4 -6 18 -9 32 -6 32 -66
210 -89 261 -32 74 -88 179 -121 232 -19 29 -34 54 -34 57 0 3 -7 13 -15 22
-8 10 -37 47 -65 83 -28 36 -79 94 -113 129 -80 83 -310 279 -341 290 -6 2
-13 7 -16 11 -8 10 -98 70 -106 70 -4 0 -15 6 -23 14 -46 39 -307 155 -393
175 -4 1 -13 3 -20 6 -48 15 -192 43 -258 50 -14 2 -50 6 -80 10 -54 6 -347
15 -352 10z m332 -159 c360 -54 629 -223 843 -532 69 -100 161 -319 183 -437
3 -17 7 -36 8 -42 2 -5 6 -21 9 -35 7 -26 17 -86 22 -130 1 -14 5 -47 9 -75
10 -74 14 -128 21 -250 3 -60 8 -111 10 -113 2 -2 -1 -17 -5 -33 -5 -16 -6
-29 -2 -29 13 0 4 -480 -13 -690 -4 -47 -13 -121 -31 -240 -19 -133 -96 -376
-147 -470 -11 -19 -29 -52 -39 -72 -11 -21 -24 -38 -29 -38 -5 0 -9 -5 -9 -11
0 -26 -174 -214 -271 -294 -105 -86 -293 -177 -409 -199 -14 -3 -50 -10 -80
-16 -70 -15 -384 -21 -470 -9 -114 16 -212 38 -265 60 -17 7 -32 13 -35 14
-15 4 -126 58 -130 63 -3 4 -30 24 -60 44 -55 37 -164 137 -232 214 -118 133
-227 330 -292 527 -20 59 -38 118 -40 130 -2 12 -11 51 -20 87 -17 74 -22 107
-51 320 -16 120 -23 513 -11 675 8 109 24 257 32 300 5 27 12 62 19 105 3 19
8 43 11 52 3 9 7 26 9 39 18 90 75 251 141 394 74 161 286 412 435 518 124 88
254 141 399 164 19 3 53 8 75 12 48 9 351 6 415 -3z"/>
</g>
</svg>
